<svg fill="none" xmlns="http://www.w3.org/2000/svg" viewBox="0 0 40 40"><path d="M17.101 21.768l3.154-9.12 3.154 9.12H17.1z" fill="#111"/><path fill-rule="evenodd" clip-rule="evenodd" d="M39.654 13.829c-.762-.166-1.632-.249-2.61-.249-3.993 0-6.28 1.56-6.28 4.29v.15c0 .42.244.66.671.66h2.195c.426 0 .64-.21.64-.63v-.15c0-1.08.853-1.53 2.804-1.53 2.012 0 2.926.6 2.926 1.89v2.19a16.792 16.792 0 00-3.444-.36c-4.359 0-6.401 1.44-6.401 4.53v.24c0 2.88 2.286 4.47 6.126 4.47.785 0 1.518-.11 2.182-.314C35.114 35.532 28.247 40 20.32 40 9.098 40 0 31.046 0 20S9.098 0 20.32 0c9.035 0 16.692 5.803 19.334 13.829zM13.33 29h1.528c.683 0 1.138-.328 1.138-1v-.728c0-.832.033-1.504.13-2.176h8.29c.098.672.163 1.376.163 2.176V28c0 .672.455 1 1.138 1h1.56c.683 0 1.171-.328 1.171-1v-.632c0-2.464-.227-3.36-1.04-5.632l-4.032-11.2C22.986 9.48 22.563 9 21.36 9h-2.08c-1.203 0-1.626.48-2.016 1.536l-4.031 11.2c-.813 2.272-1.04 3.168-1.04 5.632V28c0 .672.454 1 1.137 1z" fill="#111"/><path d="M33.721 24.68v-.24c0-1.32 1.036-1.98 3.14-1.98 1.066 0 2.072.09 3.139.39v1.38c0 1.38-1.372 2.37-3.261 2.37-2.012 0-3.018-.63-3.018-1.92z" fill="#111"/></svg>