<svg width="40" height="40" viewBox="0 0 40 40" fill="none" xmlns="http://www.w3.org/2000/svg">
<path d="M40 22.4186C39.905 23.1902 39.7637 23.9625 39.5745 24.732C38.9781 25.7686 37.7856 26.4886 36.1944 26.4886C34.5802 26.4886 33.4256 25.7537 33.4256 24.3372C33.4256 22.8568 34.7191 22.2391 36.4509 21.9941L36.6231 21.9708C37.6804 21.8277 39.5246 21.5783 40 21.1953V22.4186Z" fill="black"/>
<path d="M23.8212 10.4022L16.1385 19.8336L23.8198 22.619L24.0194 10.4741L23.8212 10.4022Z" fill="black"/>
<path fill-rule="evenodd" clip-rule="evenodd" d="M38.6872 12.5233C38.1878 12.4517 37.6831 12.4193 37.1885 12.4193C33.7357 12.4193 31.0845 13.953 30.2293 16.9351L33.8426 17.4463C34.2274 16.328 35.3178 15.3695 37.2099 15.3695C39.0058 15.3695 39.9893 16.2854 39.9893 17.8936V17.9576C39.9893 19 38.9572 19.1085 36.4206 19.3752L36.4179 19.3755C36.2602 19.3921 36.0966 19.4092 35.9271 19.4273C32.7415 19.7681 29.6948 20.716 29.6948 24.4011C29.6948 27.6176 32.0573 29.3216 35.1895 29.3216C36.4162 29.3216 37.4078 29.0488 38.1862 28.6146C33.7924 37.8125 23.0136 42.3437 13.2103 38.7887C2.79505 35.0119 -2.57508 23.5382 1.21575 13.1615C5.00658 2.78472 16.5229 -2.56556 26.9381 1.21126C32.5057 3.23023 36.6317 7.44869 38.6872 12.5233ZM13.8511 22.6385L9.07783 28.4841L5.01417 27.0105L23.3801 5.04218L27.8031 6.64606L27.6988 35.2365L23.6352 33.7629L23.7624 26.2327L13.8511 22.6385Z" fill="black"/>
</svg>
