<svg fill="none" xmlns="http://www.w3.org/2000/svg" viewBox="0 0 544 544"><g filter="url(#filter0_dddddiii)"><path d="M32 240c0-93.556 0-140.333 21.459-174.484a140.002 140.002 0 0144.056-44.057C131.668 0 178.445 0 272 0c93.556 0 140.333 0 174.484 21.459a139.988 139.988 0 0144.057 44.056C512 99.668 512 146.445 512 240c0 93.556 0 140.333-21.459 174.484a139.974 139.974 0 01-44.057 44.057C412.333 480 365.556 480 272 480c-93.556 0-140.333 0-174.484-21.459a139.988 139.988 0 01-44.057-44.057C32 380.333 32 333.556 32 240z" fill="#FBFBFD"/></g><path d="M303.625 300.436a6.123 6.123 0 008.615 0 5.97 5.97 0 000-8.526l-16.648-16.478 10.536-10.428c4.89-4.839 7.917-11.522 7.917-18.955 0-14.806-12.108-26.79-27.068-26.79s-27.068 11.984-27.068 26.79a26.645 26.645 0 007.917 18.955l10.536 10.428-10.536 10.428a14.946 14.946 0 01-10.536 4.321c-8.208 0-14.902-6.625-14.902-14.749v-91.605c0-3.341-2.736-6.049-6.054-6.049-3.376 0-6.112 2.708-6.112 6.049v91.605c0 14.807 12.108 26.79 27.068 26.79a27.206 27.206 0 0019.151-7.835l10.536-10.428 16.648 16.477zm-27.184-43.959c-2.678-2.65-4.366-6.337-4.366-10.428 0-8.123 6.694-14.749 14.902-14.749 8.208 0 14.902 6.626 14.902 14.749 0 4.091-1.688 7.778-4.366 10.428l-10.536 10.428-10.536-10.428z" fill="#F9461C"/><defs><filter id="filter0_dddddiii" x="0" y="-40" width="544" height="584" filterUnits="userSpaceOnUse" color-interpolation-filters="sRGB"><feFlood flood-opacity="0" result="BackgroundImageFix"/><feColorMatrix in="SourceAlpha" values="0 0 0 0 0 0 0 0 0 0 0 0 0 0 0 0 0 0 127 0"/><feOffset dy="2"/><feGaussianBlur stdDeviation="1"/><feColorMatrix values="0 0 0 0 0 0 0 0 0 0 0 0 0 0 0 0 0 0 0.2 0"/><feBlend in2="BackgroundImageFix" result="effect1_dropShadow"/><feColorMatrix in="SourceAlpha" values="0 0 0 0 0 0 0 0 0 0 0 0 0 0 0 0 0 0 127 0"/><feOffset dy="4"/><feGaussianBlur stdDeviation="2"/><feColorMatrix values="0 0 0 0 0 0 0 0 0 0 0 0 0 0 0 0 0 0 0.2 0"/><feBlend in2="effect1_dropShadow" result="effect2_dropShadow"/><feColorMatrix in="SourceAlpha" values="0 0 0 0 0 0 0 0 0 0 0 0 0 0 0 0 0 0 127 0"/><feOffset dy="8"/><feGaussianBlur stdDeviation="4"/><feColorMatrix values="0 0 0 0 0 0 0 0 0 0 0 0 0 0 0 0 0 0 0.2 0"/><feBlend in2="effect2_dropShadow" result="effect3_dropShadow"/><feColorMatrix in="SourceAlpha" values="0 0 0 0 0 0 0 0 0 0 0 0 0 0 0 0 0 0 127 0"/><feOffset dy="16"/><feGaussianBlur stdDeviation="8"/><feColorMatrix values="0 0 0 0 0 0 0 0 0 0 0 0 0 0 0 0 0 0 0.2 0"/><feBlend in2="effect3_dropShadow" result="effect4_dropShadow"/><feColorMatrix in="SourceAlpha" values="0 0 0 0 0 0 0 0 0 0 0 0 0 0 0 0 0 0 127 0"/><feOffset dy="32"/><feGaussianBlur stdDeviation="16"/><feColorMatrix values="0 0 0 0 0 0 0 0 0 0 0 0 0 0 0 0 0 0 0.2 0"/><feBlend in2="effect4_dropShadow" result="effect5_dropShadow"/><feBlend in="SourceGraphic" in2="effect5_dropShadow" result="shape"/><feColorMatrix in="SourceAlpha" values="0 0 0 0 0 0 0 0 0 0 0 0 0 0 0 0 0 0 127 0" result="hardAlpha"/><feOffset dy="-40"/><feGaussianBlur stdDeviation="25"/><feComposite in2="hardAlpha" operator="arithmetic" k2="-1" k3="1"/><feColorMatrix values="0 0 0 0 0.917647 0 0 0 0 0.921569 0 0 0 0 0.937255 0 0 0 1 0"/><feBlend in2="shape" result="effect6_innerShadow"/><feColorMatrix in="SourceAlpha" values="0 0 0 0 0 0 0 0 0 0 0 0 0 0 0 0 0 0 127 0" result="hardAlpha"/><feOffset/><feGaussianBlur stdDeviation="4"/><feComposite in2="hardAlpha" operator="arithmetic" k2="-1" k3="1"/><feColorMatrix values="0 0 0 0 0 0 0 0 0 0 0 0 0 0 0 0 0 0 0.6 0"/><feBlend in2="effect6_innerShadow" result="effect7_innerShadow"/><feColorMatrix in="SourceAlpha" values="0 0 0 0 0 0 0 0 0 0 0 0 0 0 0 0 0 0 127 0" result="hardAlpha"/><feOffset dy="16"/><feGaussianBlur stdDeviation="8"/><feComposite in2="hardAlpha" operator="arithmetic" k2="-1" k3="1"/><feColorMatrix values="0 0 0 0 1 0 0 0 0 1 0 0 0 0 1 0 0 0 1 0"/><feBlend in2="effect7_innerShadow" result="effect8_innerShadow"/></filter></defs></svg>