<svg width="40" height="40" viewBox="0 0 40 40" fill="none" xmlns="http://www.w3.org/2000/svg">
<path d="M19.9077 12.9219L16.6616 22.5898H23.3413L20.0952 12.9219H19.9077Z" fill="#0000FF"/>
<path fill-rule="evenodd" clip-rule="evenodd" d="M40 0H0V40H40V32.2021C39.5093 32.3062 38.9717 32.3633 38.3848 32.3633C34.9512 32.3633 32.3613 30.4883 32.3613 26.9492C32.3613 22.8945 35.7012 21.8516 39.1934 21.4766C39.4773 21.4463 39.7461 21.418 40 21.3911V17.043C38.2927 17.2261 37.2876 18.1904 36.9082 19.2969L32.9473 18.7344C33.8367 15.6216 36.4976 13.9429 40 13.7788V0ZM15.4897 26.082L13.5093 32H8.86865L17.3179 8H22.6851L31.146 32H26.5054L24.5132 26.082H15.4897Z" fill="#0000FF"/>
<path d="M40 24.269C39.9182 24.2803 39.8406 24.291 39.7676 24.3008C37.8691 24.5703 36.4512 25.25 36.4512 26.8789C36.4512 28.4375 37.7168 29.2461 39.4863 29.2461C39.6621 29.2461 39.8333 29.2383 40 29.2227V24.269Z" fill="#0000FF"/>
</svg>
