<svg width="40" height="40" viewBox="0 0 40 40" fill="none" xmlns="http://www.w3.org/2000/svg">
<path d="M20.0244 10.4037L22.6318 22.7197H17.3904L20.0244 10.4037Z" fill="#0000FF"/>
<path fill-rule="evenodd" clip-rule="evenodd" d="M40 0H0V40H40V32.922C39.204 33.1267 38.3504 33.229 37.4393 33.229C36.2438 33.229 35.1771 33.0391 34.2392 32.6593C33.3116 32.2794 32.585 31.7302 32.0594 31.0116C31.5338 30.293 31.271 29.4204 31.271 28.3939C31.271 27.2338 31.5905 26.2894 32.2295 25.5605C32.8685 24.8317 33.7136 24.2773 34.7648 23.8975C35.8264 23.5074 36.9755 23.2507 38.2122 23.1276C38.8867 23.0623 39.4826 22.9992 40 22.9382V19.9156C39.8913 19.9114 39.7798 19.9093 39.6654 19.9093C38.5627 19.9093 37.7176 20.1094 37.1301 20.5098C36.5529 20.8999 36.2644 21.5004 36.2644 22.3114H31.5493C31.5493 20.9974 31.9048 19.8887 32.616 18.9853C33.3374 18.082 34.3113 17.3993 35.5378 16.9373C36.7642 16.4651 38.1504 16.229 39.6964 16.229C39.7981 16.229 39.8993 16.2301 40 16.2323V0ZM10 33L16.0082 7H24.0245L30 33H24.8082L23.5336 26.9797H16.4794L15.1918 33H10Z" fill="#0000FF"/>
<path d="M40 26.0715C39.739 26.104 39.4781 26.1339 39.2171 26.1611C38.1659 26.2637 37.3774 26.4434 36.8518 26.7C36.3365 26.9464 36.0789 27.3673 36.0789 27.9627C36.0789 28.5273 36.3004 28.9533 36.7436 29.2408C37.1868 29.518 37.8464 29.6565 38.7224 29.6565C39.1662 29.6565 39.5921 29.6101 40 29.5172V26.0715Z" fill="#0000FF"/>
</svg>
