<svg fill="none" xmlns="http://www.w3.org/2000/svg" viewBox="0 0 284 76"><path d="M98.062 38c0-9.8 7.39-16.6 17.376-16.6 7.789 0 11.783 4.4 13.98 8.6l-7.19 3.4c-.999-2.6-3.795-4.6-6.79-4.6-5.193 0-8.988 4-8.988 9.2 0 5.2 3.595 9.2 8.988 9.2 2.995 0 5.791-2.2 6.79-4.6l7.19 3.4c-1.997 4.2-6.191 8.6-13.98 8.6-9.787 0-17.376-6.8-17.376-16.6zM137.007 38c0-9.8 7.39-16.6 17.176-16.6 9.786 0 16.976 6.8 16.976 16.6s-7.19 16.6-16.976 16.6c-9.786 0-17.176-6.8-17.176-16.6zm25.764 0c0-5.2-3.395-9.2-8.588-9.2-5.393 0-8.788 4-8.788 9.2 0 5.2 3.395 9.2 8.788 9.2 5.193 0 8.588-4 8.588-9.2zM188.734 54l-11.983-32h9.387l7.789 23 7.989-23h9.386l-11.983 32h-10.585zM220.689 54V22h23.367v7.2h-15.179v5h14.78v7.2h-14.78v5.4h15.179V54h-23.367zM274.413 54l-5.392-10.8h-4.194V54h-8.189V22h15.978c7.19 0 11.184 4.8 11.184 10.6 0 5.6-3.395 8.6-6.391 9.6L284 54h-9.587zm.999-21.4c0-2.2-1.797-3.4-3.994-3.4h-6.591V36h6.591c2.197 0 3.994-1.2 3.994-3.4zM37.947 7.6C21.17 7.6 7.589 21.2 7.589 38c0 16.8 13.581 30.4 30.358 30.4 16.776 0 30.357-13.6 30.357-30.4 0-16.8-13.581-30.4-30.357-30.4zm0 52c-11.784 0-21.57-9.6-21.57-21.6 0-11.8 9.587-21.6 21.57-21.6 3.395 0 6.79.8 9.786 2.4 2.996 1.4 5.392 3.6 7.39 6.2l-5.992 4.6C46.335 26 42.34 24 37.947 24c-7.59 0-13.98 6.2-13.98 14s6.19 14 13.98 14c4.593 0 8.787-2.2 11.383-6l6.192 4.4c-3.995 5.8-10.585 9.2-17.575 9.2z" fill="#fff"/><path opacity=".8" d="M37.947 0c-8.189 0-15.578 2.6-21.77 7 3.795-1.2 7.59-1.8 11.784-1.8 5.193 0 9.986 1 14.38 2.8 14.779 2 25.963 14.8 25.963 30 0 5.2-1.398 10.2-3.795 14.6-2.197 8.8-7.589 16.4-14.978 21.6C64.709 69.2 75.694 55 75.694 38c.2-21-16.777-38-37.747-38z" fill="#fff"/><path opacity=".6" d="M37.947 68.4C21.17 68.4 7.588 54.8 7.588 38c0-16.8 13.581-30.4 30.358-30.4 1.398 0 2.995.2 4.393.4-4.394-1.8-9.386-2.8-14.38-2.8-4.194 0-7.988.6-11.783 1.8A37.728 37.728 0 000 38c0 21 16.976 38 37.947 38 4.194 0 7.988-.6 11.783-1.8 7.19-5.2 12.582-12.8 14.979-21.6C59.516 62 49.53 68.4 37.946 68.4z" fill="#fff"/></svg>