<svg width="284" height="76" viewBox="0 0 284 76" fill="none" xmlns="http://www.w3.org/2000/svg">
<path d="M98.062 37.9999C98.062 28.1999 105.452 21.3999 115.438 21.3999C123.227 21.3999 127.221 25.7999 129.418 29.9999L122.228 33.3999C121.229 30.7999 118.433 28.7999 115.438 28.7999C110.245 28.7999 106.45 32.7999 106.45 37.9999C106.45 43.1999 110.045 47.1999 115.438 47.1999C118.433 47.1999 121.229 44.9999 122.228 42.5999L129.418 45.9999C127.421 50.1999 123.227 54.5999 115.438 54.5999C105.651 54.5999 98.062 47.7999 98.062 37.9999Z" fill="#6C19DB"/>
<path d="M137.007 37.9999C137.007 28.1999 144.397 21.3999 154.183 21.3999C163.969 21.3999 171.159 28.1999 171.159 37.9999C171.159 47.7999 163.969 54.5999 154.183 54.5999C144.397 54.5999 137.007 47.7999 137.007 37.9999ZM162.771 37.9999C162.771 32.7999 159.376 28.7999 154.183 28.7999C148.791 28.7999 145.396 32.7999 145.396 37.9999C145.396 43.1999 148.791 47.1999 154.183 47.1999C159.376 47.1999 162.771 43.1999 162.771 37.9999Z" fill="#6C19DB"/>
<path d="M188.734 54L176.751 22H186.138L193.927 45L201.916 22H211.302L199.319 54H188.734Z" fill="#6C19DB"/>
<path d="M220.689 54V22H244.056V29.2H228.877V34.2H243.657V41.4H228.877V46.8H244.056V54H220.689V54Z" fill="#6C19DB"/>
<path d="M274.414 54L269.021 43.2H264.827V54H256.639V22H272.616C279.806 22 283.8 26.8 283.8 32.6C283.8 38.2 280.405 41.2 277.409 42.2L284 54H274.414ZM275.412 32.6C275.412 30.4 273.615 29.2 271.418 29.2H264.827V36H271.418C273.615 36 275.412 34.8 275.412 32.6Z" fill="#6C19DB"/>
<path d="M37.9461 7.6001C21.1697 7.6001 7.58887 21.2001 7.58887 38.0001C7.58887 54.8001 21.1697 68.4001 37.9461 68.4001C54.7225 68.4001 68.3033 54.8001 68.3033 38.0001C68.3033 21.2001 54.7225 7.6001 37.9461 7.6001ZM37.9461 59.6001C26.1627 59.6001 16.3765 50.0001 16.3765 38.0001C16.3765 26.2001 25.963 16.4001 37.9461 16.4001C41.3413 16.4001 44.7365 17.2001 47.7323 18.8001C50.7281 20.2001 53.1247 22.4001 55.1219 25.0001L49.1304 29.6001C46.3343 26.0001 42.3399 24.0001 37.9461 24.0001C30.3568 24.0001 23.9658 30.2001 23.9658 38.0001C23.9658 45.8001 30.1571 52.0001 37.9461 52.0001C42.5396 52.0001 46.7337 49.8001 49.3301 46.0001L55.5214 50.4001C51.527 56.2001 44.9363 59.6001 37.9461 59.6001Z" fill="white"/>
<path d="M37.9471 59.5999C26.1637 59.5999 16.3774 49.9999 16.3774 37.9999C16.3774 25.9999 26.1637 16.3999 37.9471 16.3999C41.3423 16.3999 44.7375 17.1999 47.7333 18.7999C50.7291 20.1999 53.1257 22.3999 55.1229 24.9999L49.1313 29.5999C46.3352 25.9999 42.3409 23.9999 37.9471 23.9999C30.3578 23.9999 23.9668 30.1999 23.9668 37.9999C23.9668 45.7999 30.158 51.9999 37.9471 51.9999C42.5406 51.9999 46.7347 49.7999 49.331 45.9999L55.5223 50.3999C51.5279 56.1999 44.9372 59.5999 37.9471 59.5999Z" fill="#6C19DB"/>
<path opacity="0.2" d="M37.9466 0C29.7581 0 22.3685 2.6 16.1772 7C19.9719 5.8 23.7666 5.2 27.9607 5.2C33.1533 5.2 37.9466 6.2 42.3404 8C57.1196 10 68.3038 22.8 68.3038 38C68.3038 43.2 66.9058 48.2 64.5092 52.6C62.3123 61.4 56.9199 69 49.5303 74.2C64.7089 69.2 75.6934 55 75.6934 38C75.8931 17 58.917 0 37.9466 0Z" fill="#6C19DB"/>
<path opacity="0.4" d="M37.9466 68.4002C21.1702 68.4002 7.58931 54.8002 7.58931 38.0002C7.58931 21.2002 21.1702 7.6002 37.9466 7.6002C39.3446 7.6002 40.9423 7.8002 42.3404 8.0002C37.9465 6.2002 32.9536 5.2002 27.9606 5.2002C23.7665 5.2002 19.9719 5.8002 16.1772 7.0002C6.391 13.8002 0 25.2002 0 38.0002C0 59.0002 16.9761 76.0002 37.9466 76.0002C42.1406 76.0002 45.9353 75.4002 49.73 74.2002C56.9198 69.0002 62.3122 61.4002 64.7089 52.6002C59.5162 62.0002 49.5302 68.4002 37.9466 68.4002Z" fill="#6C19DB"/>
</svg>
