<svg fill="none" xmlns="http://www.w3.org/2000/svg" viewBox="0 0 126 60"><g clip-path="url(#clip0)"><path d="M13.508 4.6V21.61s5.971 0 9.167-.244c2.513-.441 2.976-.685 3.438-3.207l.925-3.695h2.734l-.463 8.075.243 8.272h-2.756l-.683-3.23c-.682-2.3-1.607-2.766-3.438-2.987-2.29-.244-9.167-.244-9.167-.244v14.266c0 2.743 1.388 3.915 4.584 3.915h9.63c2.975 0 5.948-.244 7.8-4.6l2.492-5.53h2.312c-.242 1.15-1.387 11.28-1.607 13.558 0 0-8.705-.22-12.363-.22H9.85l-9.85.22v-2.5l3.196-.707c2.313-.465 2.995-1.15 2.995-2.987 0 0 .243-6.214.243-16.567 0-10.327-.243-16.544-.243-16.544 0-2.058-.682-2.523-2.995-2.987L0 2.986V.465l9.63.198h18.334C31.622.662 37.79 0 37.79 0s-.22 3.893-.463 13.093h-2.513l-.925-3.23c-.903-4.136-2.27-6.194-4.804-6.194h-14.41c-1.168.003-1.168.224-1.168.931zm37.108 1.815h2.756v9.665l9.41-.464-.463 4.38-9.167-.708v17.03c0 4.822 1.608 6.68 4.363 6.68 2.49 0 4.341-1.394 5.024-2.543l1.365 1.614c-1.365 3.207-5.244 4.82-8.924 4.82-4.561 0-8.265-2.743-8.265-8.028V19.528H41.25V17.23c4.586-.464 8.002-3.23 9.367-10.814zm19.722 29.657l1.828 4.38c.682 1.834 2.29 3.694 5.948 3.694 3.901 0 5.509-2.078 5.509-4.6 0-7.83-15.358-5.529-15.358-16.103 0-5.97 4.803-8.759 10.995-8.759 2.755 0 6.876.465 8.947 1.393-.463 2.299-.706 5.286-.706 7.587l-2.27.221-1.608-4.6c-.463-1.127-2.313-2.058-4.584-2.058-2.755 0-5.508 1.149-5.508 4.136 0 7.122 15.82 5.529 15.82 16.102 0 5.993-5.265 9.201-11.7 9.201-4.803 0-9.629-1.857-9.629-1.857.463-2.743.243-5.727 0-8.736h2.316zm17.871 22.074c.683-2.523 1.145-5.727 1.608-8.737l2.513-.22.925 4.82c.22 1.15.903 2.079 2.734 2.079 2.975 0 6.876-1.835 10.554-8.273-1.63-3.915-6.433-16.544-10.797-26.209-1.145-2.542-1.365-2.766-2.953-3.23l-1.168-.442v-2.321l6.897.243 8.461-.464v2.302l-2.07.464c-1.608.22-2.271 1.127-2.271 2.058 0 .244 0 .464.22.929.44 1.393 4.121 11.723 6.877 18.622 2.271-4.821 6.634-15.636 7.317-17.473.242-.928.462-1.15.462-1.834 0-1.172-.682-1.858-2.27-2.3l-1.631-.466v-2.3l6.434.222 5.949-.221v2.299l-1.145.906c-2.291.928-2.533 1.149-3.439 3.006L111.347 45.27C105.376 58.85 99.184 60 94.841 60c-2.753.003-4.824-.705-6.632-1.854z" fill="#fff"/></g><defs><clipPath id="clip0"><path fill="#fff" d="M0 0h126v60H0z"/></clipPath></defs></svg>