<svg fill="none" xmlns="http://www.w3.org/2000/svg" viewBox="0 0 43 64"><path d="M37.655 63.081a3.135 3.135 0 004.42 0 3.077 3.077 0 000-4.385l-8.541-8.474 5.405-5.363A13.67 13.67 0 0043 35.111c0-7.615-6.211-13.778-13.885-13.778-7.675 0-13.886 6.163-13.886 13.778 0 3.793 1.553 7.26 4.061 9.748l5.405 5.363-5.405 5.363a7.657 7.657 0 01-5.405 2.222c-4.21 0-7.644-3.407-7.644-7.585V3.112A3.117 3.117 0 003.135 0C1.403 0 0 1.393 0 3.111v47.111C0 57.837 6.211 64 13.885 64c3.823 0 7.316-1.54 9.825-4.03l5.405-5.363 8.54 8.474zM23.71 40.474a7.539 7.539 0 01-2.24-5.363c0-4.178 3.434-7.585 7.645-7.585 4.21 0 7.644 3.407 7.644 7.585 0 2.104-.866 4-2.24 5.363l-5.404 5.363-5.405-5.363z" fill="#fff"/></svg>