<svg width="43" height="64" viewBox="0 0 43 64" fill="none" xmlns="http://www.w3.org/2000/svg">
<path d="M37.6549 63.0815C38.8792 64.2963 40.85 64.2963 42.0743 63.0815C43.2986 61.8667 43.2986 59.9111 42.0743 58.6963L33.534 50.2222L38.9389 44.8593C41.4472 42.3704 43 38.9333 43 35.1111C43 27.4963 36.7889 21.3333 29.1146 21.3333C21.4403 21.3333 15.2292 27.4963 15.2292 35.1111C15.2292 38.9037 16.7819 42.3704 19.2903 44.8593L24.6951 50.2222L19.2903 55.5852C17.9167 56.9482 16.0056 57.8074 13.8854 57.8074C9.675 57.8074 6.24097 54.4 6.24097 50.2222V3.11111C6.24097 1.39259 4.8375 0 3.13542 0C1.40347 0 0 1.39259 0 3.11111V50.2222C0 57.837 6.21111 64 13.8854 64C17.7076 64 21.2014 62.4593 23.7097 59.9704L29.1146 54.6074L37.6549 63.0815ZM23.7097 40.4741C22.3361 39.1111 21.4701 37.2148 21.4701 35.1111C21.4701 30.9333 24.9042 27.5259 29.1146 27.5259C33.325 27.5259 36.759 30.9333 36.759 35.1111C36.759 37.2148 35.8931 39.1111 34.5194 40.4741L29.1146 45.837L23.7097 40.4741Z" fill="#F9461C"/>
</svg>
