<svg width="166" height="52" viewBox="0 0 166 52" fill="none" xmlns="http://www.w3.org/2000/svg">
<path fillRule="evenodd" clip-rule="evenodd" d="M165.973 7.68859C166.154 8.39616 165.358 9.07587 164.944 9.59587C161.469 13.9286 157.615 19.0543 152.986 22.3452C153.32 24.0686 153.143 26.3566 152.538 27.6194C153.751 29.1572 155.038 30.6132 155.788 32.604C154.801 37.804 152.511 41.8377 148.849 44.4749C145.276 47.0452 140.447 48.0592 134.969 49.3109C124.377 51.7344 106.948 54.1246 99.0906 47.8437C90.5818 52.7986 73.3869 53.4523 65.4283 47.5503C59.7713 54.6576 37.4547 54.0336 40.7747 39.9304C36.6359 43.0412 30.5163 47.3293 24.6784 49.751C17.9079 52.5553 5.08677 52.2396 6.36813 42.7162C6.52294 41.5814 7.00602 40.9407 7.55064 39.9304C5.56985 36.5003 4.31833 34.1194 3.1209 31.1369C1.97383 28.2769 0.224314 25.0213 0.0191466 21.0266C-0.409839 12.5283 6.26369 7.14073 12.8701 4.60944C16.2404 3.31873 18.9785 1.44859 22.3171 0.510728C27.3064 -0.9007 31.5832 1.82373 31.9133 6.37187C37.7139 4.6633 44.7773 2.7783 52.4375 3.88144C58.5365 -0.826415 70.4474 2.08187 78.2755 4.31787C80.0455 4.82487 82.4273 6.13416 83.7385 6.07844C84.8483 6.03387 86.8533 4.53887 88.0172 4.0263C93.51 1.6083 100.691 -0.9657 108.541 0.362157C110.028 0.611014 111.388 1.39287 112.969 1.53216C114.044 1.63059 115.357 1.2963 116.513 1.24244C134.861 0.352871 150.136 5.24087 165.975 7.68859H165.973ZM114.596 7.10544C112.721 7.3283 111.391 9.36373 110.166 10.036C110.255 10.0267 110.339 10.0119 110.311 9.88744C110.535 8.8883 110.964 8.09159 111.05 6.95873C101.224 3.52301 91.6617 8.54473 84.6244 12.3797C78.9954 15.444 73.9744 19.0469 70.4493 22.6367C71.7232 20.4824 73.0754 18.3504 74.5843 16.3373C76.1137 14.2926 77.8166 12.4429 79.1633 10.6229C76.2201 9.85773 73.2694 9.04987 70.3001 8.42216C66.0811 7.53073 60.2133 6.0543 56.718 7.98387C55.7071 8.54101 54.879 9.91344 53.9128 10.036C53.1127 10.1382 51.7959 9.55873 50.8111 9.45101C47.2038 9.05173 43.8839 9.38416 40.6236 10.036C37.5703 10.6433 31.115 11.7204 30.2869 14.5767C29.7572 16.4116 30.9397 18.1889 30.7308 20.0033C30.5294 21.7862 28.8022 24.1484 27.9256 25.571C26.8531 27.3167 25.762 28.8619 23.9379 29.6734C22.8337 24.2134 24.0349 19.357 24.9731 14.7272C25.5513 11.8727 26.717 8.95144 25.7135 6.07844C22.8971 5.6903 20.5265 7.90216 17.7381 9.00716C12.5008 11.0872 6.66842 12.9833 5.92796 18.9744C5.51016 22.3489 6.78779 24.4939 7.69986 26.8896C9.50212 31.683 11.9357 36.2169 14.9367 40.3724C14.1533 41.7987 12.3124 42.1702 12.1277 44.1796C12.9615 45.3496 14.6961 45.5056 16.4101 45.5C21.364 45.4889 25.4263 43.0152 29.1062 40.9574C37.1189 36.4817 42.5018 29.5936 48.1551 23.0787C49.1473 21.9329 49.9643 20.553 51.2568 19.8547C52.5251 25.6434 50.0575 28.7393 48.3006 33.4824C47.6235 35.3099 45.4879 41.0299 46.5287 43.7394C47.6701 46.7202 57.3895 46.8502 59.9652 44.9169C61.2634 43.9419 61.78 41.7412 62.4776 40.3724C63.3673 38.6119 64.1376 37.0927 64.8389 35.5364C64.8781 41.9566 69.6827 43.8416 74.8772 45.2084C85.9189 48.1056 97.0538 42.9297 103.078 39.3492C102.325 44.1053 104.186 44.5826 107.952 45.357C117.688 47.3516 127.493 45.0506 135.413 43.1563C142.674 41.4217 148.512 40.196 149.588 33.0423C148.426 32.045 145.522 32.1694 143.535 32.4592C137.679 33.3097 132.009 36.2477 124.194 35.6813C122.767 35.5792 119.688 35.0852 119.466 34.2179C119.122 32.8659 121.562 31.9187 123.606 31.5807C129.463 30.5964 137.931 31.59 142.648 29.8164C144.912 28.9696 147.644 26.5219 147.37 23.8104C147.191 21.9793 144.783 21.021 142.498 20.8817C136.037 20.4806 131.419 24.2246 124.639 22.932C125.486 21.8697 125.639 20.1184 126.702 19.2697C131.662 19.1657 136.48 20.1426 141.172 19.8547C147.697 19.4499 151.375 16.7217 154.461 13.1133C154.792 12.7233 155.62 12.3054 155.347 11.6499C144.015 9.93758 128.566 5.4043 114.594 7.10544H114.596ZM92.1522 18.3857C91.4248 21.6729 89.9047 25.4354 89.0523 29.0829C93.7451 29.1497 98.6952 28.1989 103.52 27.911C104.173 27.0456 104.494 25.8496 104.85 24.687C105.818 26.0464 106.499 28.5907 105.589 30.5482C98.2606 30.446 92.9934 36.4037 85.8051 36.4093C82.5858 36.413 79.8497 34.5763 81.3735 30.9864C83.5259 25.9257 88.864 22.3897 92.1522 18.3857V18.3857ZM109.28 12.9629C110.66 14.5247 113.682 14.4579 115.48 15.6037C113.053 16.2222 109.998 16.2184 107.801 17.0653C108.319 15.7207 108.784 14.3279 109.28 12.9647V12.9629Z" fill="black"/>
</svg>
