<svg fill="none" xmlns="http://www.w3.org/2000/svg" viewBox="0 0 166 52"><g clip-path="url(#clip0)"><path fill-rule="evenodd" clip-rule="evenodd" d="M165.973 7.689c.181.707-.615 1.387-1.029 1.907-3.475 4.333-7.329 9.458-11.958 12.75.334 1.723.157 4.01-.448 5.273 1.213 1.538 2.5 2.994 3.25 4.985-.987 5.2-3.277 9.234-6.939 11.87-3.573 2.571-8.402 3.585-13.88 4.837-10.592 2.423-28.021 4.814-35.878-1.467-8.51 4.955-25.704 5.608-33.663-.294-5.657 7.108-27.973 6.484-24.653-7.62-4.14 3.111-10.259 7.4-16.097 9.821-6.77 2.804-19.591 2.489-18.31-7.035.155-1.135.638-1.775 1.183-2.786-1.981-3.43-3.233-5.81-4.43-8.793C1.974 28.277.224 25.02.019 21.027-.41 12.528 6.264 7.14 12.87 4.609c3.37-1.29 6.109-3.16 9.447-4.098 4.99-1.412 9.266 1.313 9.596 5.86 5.8-1.708 12.864-3.593 20.524-2.49 6.1-4.707 18.01-1.8 25.838.437 1.77.507 4.152 1.816 5.463 1.76 1.11-.044 3.115-1.54 4.28-2.052C93.51 1.608 100.69-.966 108.54.362c1.487.249 2.847 1.03 4.428 1.17 1.075.099 2.388-.236 3.544-.29 18.348-.89 33.623 3.999 49.462 6.447h-.002zm-51.377-.584c-1.875.223-3.205 2.259-4.43 2.931.089-.01.173-.024.145-.149.224-.999.653-1.795.739-2.928-9.826-3.436-19.388 1.586-26.426 5.42-5.629 3.065-10.65 6.668-14.175 10.258 1.274-2.155 2.626-4.287 4.135-6.3 1.53-2.044 3.233-3.894 4.58-5.714-2.944-.765-5.895-1.573-8.864-2.2-4.219-.892-10.087-2.369-13.582-.44-1.01.558-1.839 1.93-2.805 2.053-.8.102-2.117-.477-3.102-.585-3.607-.4-6.927-.067-10.187.585-3.054.607-9.509 1.684-10.337 4.54-.53 1.836.653 3.613.444 5.427-.202 1.783-1.929 4.145-2.805 5.568-1.073 1.746-2.164 3.29-3.988 4.102-1.104-5.46.097-10.316 1.035-14.946.578-2.854 1.744-5.776.74-8.649-2.816-.388-5.187 1.824-7.975 2.93-5.237 2.08-11.07 3.975-11.81 9.966-.418 3.375.86 5.52 1.772 7.916a57.735 57.735 0 007.237 13.482c-.784 1.427-2.625 1.798-2.81 3.808.834 1.17 2.57 1.326 4.283 1.32 4.954-.011 9.016-2.485 12.696-4.543 8.013-4.475 13.396-11.363 19.05-17.878.991-1.146 1.808-2.526 3.1-3.224 1.27 5.788-1.199 8.884-2.955 13.627-.678 1.828-2.813 7.548-1.772 10.257 1.141 2.981 10.86 3.111 13.436 1.178 1.298-.975 1.815-3.176 2.513-4.545.89-1.76 1.66-3.28 2.36-4.836.04 6.42 4.845 8.306 10.04 9.672 11.04 2.898 22.176-2.278 28.2-5.859-.753 4.756 1.108 5.234 4.874 6.008 9.736 1.995 19.541-.306 27.461-2.2 7.261-1.735 13.099-2.961 14.175-10.115-1.162-.997-4.066-.873-6.053-.583-5.856.85-11.526 3.789-19.341 3.222-1.427-.102-4.506-.596-4.728-1.463-.344-1.352 2.096-2.3 4.14-2.637 5.857-.985 14.325.009 19.042-1.765 2.264-.846 4.996-3.294 4.722-6.006-.179-1.83-2.587-2.789-4.872-2.928-6.461-.401-11.079 3.343-17.859 2.05.847-1.062 1-2.814 2.063-3.662 4.96-.104 9.778.873 14.47.585 6.525-.405 10.203-3.133 13.289-6.742.331-.39 1.159-.808.886-1.463-11.332-1.712-26.781-6.246-40.753-4.545h.002zm-22.444 11.28c-.727 3.288-2.247 7.05-3.1 10.698 4.693.067 9.643-.884 14.468-1.172.653-.865.974-2.061 1.33-3.224.968 1.36 1.649 3.904.739 5.861-7.328-.102-12.596 5.856-19.784 5.861-3.22.004-5.955-1.833-4.431-5.423 2.152-5.06 7.49-8.596 10.778-12.6zm17.128-5.422c1.38 1.562 4.402 1.495 6.2 2.64-2.427.62-5.482.615-7.679 1.462.518-1.344.983-2.737 1.479-4.1v-.002z" fill="#fff"/></g><defs><clipPath id="clip0"><path fill="#fff" d="M0 0h166v52H0z"/></clipPath></defs></svg>