<svg width="284" height="76" viewBox="0 0 284 76" fill="none" xmlns="http://www.w3.org/2000/svg">
<path d="M98.0625 37.9996C98.0625 28.1996 105.452 21.3997 115.438 21.3997C123.227 21.3997 127.221 25.7996 129.418 29.9996L122.228 33.3996C121.23 30.7996 118.434 28.7996 115.438 28.7996C110.245 28.7996 106.451 32.7996 106.451 37.9996C106.451 43.1995 110.046 47.1995 115.438 47.1995C118.434 47.1995 121.23 44.9995 122.228 42.5995L129.418 45.9995C127.421 50.1995 123.227 54.5994 115.438 54.5994C105.652 54.5994 98.0625 47.7995 98.0625 37.9996Z" fill="white"/>
<path d="M137.007 37.9996C137.007 28.1996 144.397 21.3997 154.183 21.3997C163.969 21.3997 171.159 28.1996 171.159 37.9996C171.159 47.7995 163.969 54.5994 154.183 54.5994C144.397 54.5994 137.007 47.7995 137.007 37.9996ZM162.771 37.9996C162.771 32.7996 159.376 28.7996 154.183 28.7996C148.79 28.7996 145.395 32.7996 145.395 37.9996C145.395 43.1995 148.79 47.1995 154.183 47.1995C159.376 47.1995 162.771 43.1995 162.771 37.9996Z" fill="white"/>
<path d="M188.734 53.9998L176.751 22H186.138L193.927 44.9998L201.916 22H211.302L199.319 53.9998H188.734Z" fill="white"/>
<path d="M220.689 53.9998V22H244.056V29.1999H228.877V34.1999H243.657V41.3999H228.877V46.7998H244.056V53.9998H220.689V53.9998Z" fill="white"/>
<path d="M274.414 53.9998L269.021 43.1999H264.827V53.9998H256.639V22H272.616C279.806 22 283.8 26.8 283.8 32.5999C283.8 38.1999 280.405 41.1999 277.409 42.1999L284 53.9998H274.414ZM275.412 32.5999C275.412 30.4 273.615 29.1999 271.418 29.1999H264.827V35.9999H271.418C273.615 35.9999 275.412 34.7999 275.412 32.5999Z" fill="white"/>
<path d="M37.9461 7.59961C21.1697 7.59961 7.58887 21.1995 7.58887 37.9994C7.58887 54.7993 21.1697 68.3992 37.9461 68.3992C54.7225 68.3992 68.3034 54.7993 68.3034 37.9994C68.3034 21.1995 54.7225 7.59961 37.9461 7.59961ZM37.9461 59.5992C26.1627 59.5992 16.3765 49.9993 16.3765 37.9994C16.3765 26.1995 25.963 16.3995 37.9461 16.3995C41.3413 16.3995 44.7365 17.1995 47.7323 18.7995C50.7281 20.1995 53.1247 22.3995 55.1219 24.9995L49.1304 29.5995C46.3343 25.9995 42.3399 23.9995 37.9461 23.9995C30.3568 23.9995 23.9658 30.1994 23.9658 37.9994C23.9658 45.7993 30.1571 51.9993 37.9461 51.9993C42.5396 51.9993 46.7337 49.7993 49.3301 45.9993L55.5214 50.3993C51.527 56.1993 44.9363 59.5992 37.9461 59.5992Z" fill="white"/>
<g opacity="0.8">
<path opacity="0.8" d="M37.9468 0C29.7584 0 22.3688 2.59998 16.1775 6.99995C19.9721 5.79996 23.7668 5.19996 27.9609 5.19996C33.1536 5.19996 37.9468 6.19996 42.3406 7.99995C57.1198 9.99993 68.3041 22.7998 68.3041 37.9997C68.3041 43.1997 66.9061 48.1997 64.5094 52.5997C62.3125 61.3996 56.9201 68.9995 49.5305 74.1995C64.7091 69.1995 75.6937 54.9996 75.6937 37.9997C75.8934 16.9999 58.9173 0 37.9468 0Z" fill="white"/>
</g>
<path opacity="0.6" d="M37.9466 68.4002C21.1702 68.4002 7.58931 54.8003 7.58931 38.0005C7.58931 21.2006 21.1702 7.60068 37.9466 7.60068C39.3446 7.60068 40.9423 7.80067 42.3404 8.00067C37.9466 6.20068 32.9536 5.20068 27.9606 5.20068C23.7665 5.20068 19.9719 5.80068 16.1772 7.00067C6.391 13.8006 0 25.2005 0 38.0005C0 59.0003 16.9761 76.0002 37.9466 76.0002C42.1407 76.0002 45.9353 75.4002 49.73 74.2002C56.9198 69.0002 62.3123 61.4003 64.7089 52.6004C59.5162 62.0003 49.5303 68.4002 37.9466 68.4002Z" fill="white"/>
</svg>
