<svg width="126" height="60" viewBox="0 0 126 60" fill="none" xmlns="http://www.w3.org/2000/svg">
<path d="M13.508 4.60036V21.6089C13.508 21.6089 19.4792 21.6089 22.675 21.3655C25.1882 20.9238 25.6507 20.6804 26.1133 18.158L27.0385 14.4635H29.7717L29.3091 22.5375L29.5517 30.8097H26.7959L26.1133 27.5795C25.4307 25.2807 24.5056 24.8136 22.675 24.5928C20.3846 24.3493 13.508 24.3493 13.508 24.3493V38.6147C13.508 41.3579 14.8957 42.53 18.0915 42.53H27.7211C30.6968 42.53 33.6698 42.2865 35.5229 37.9296L38.0135 32.4007H40.3264C40.0839 33.5501 38.9387 43.6793 38.7187 45.9583C38.7187 45.9583 30.0142 45.7375 26.3559 45.7375H9.84961L0 45.9583V43.4585L3.19576 42.7508C5.50867 42.2865 6.19127 41.6014 6.19127 39.7641C6.19127 39.7641 6.43384 33.5501 6.43384 23.1971C6.43384 12.8697 6.19127 6.65282 6.19127 6.65282C6.19127 4.5947 5.50867 4.13041 3.19576 3.66613L0 2.98669V0.464282L9.6296 0.662451H27.9636C31.622 0.662451 37.7907 0 37.7907 0C37.7907 0 37.5707 3.89261 37.3281 13.0933H34.8149L33.8898 9.86317C32.9872 5.72709 31.6192 3.66896 29.0862 3.66896H14.6757C13.508 3.67179 13.508 3.89261 13.508 4.60036ZM50.6161 6.41502H53.3718V16.08L62.7814 15.6157L62.3188 19.9953L53.1518 19.2875V36.3188C53.1518 41.1399 54.7596 42.9971 57.5153 42.9971C60.0059 42.9971 61.8562 41.6042 62.5388 40.4548L63.904 42.0685C62.5388 45.276 58.6605 46.8897 54.9796 46.8897C50.4186 46.8897 46.7151 44.1464 46.7151 38.861V19.5282H41.2488V17.2294C45.8351 16.7651 49.2509 13.9992 50.6161 6.41502ZM70.3378 36.0725L72.1656 40.452C72.8482 42.2865 74.456 44.1464 78.1143 44.1464C82.0152 44.1464 83.623 42.0685 83.623 39.5461C83.623 31.7156 68.2647 34.0172 68.2647 23.4434C68.2647 17.4729 73.0682 14.6843 79.2595 14.6843C82.0152 14.6843 86.1361 15.1486 88.2065 16.0772C87.7439 18.376 87.5013 21.3626 87.5013 23.6642L85.2307 23.8851L83.623 19.2847C83.1604 18.158 81.3101 17.2266 79.0395 17.2266C76.2837 17.2266 73.5308 18.376 73.5308 21.3626C73.5308 28.4854 89.3517 26.8916 89.3517 37.4653C89.3517 43.4585 84.0856 46.666 77.6517 46.666C72.8482 46.666 68.0221 44.8089 68.0221 44.8089C68.4847 42.0657 68.2647 39.0818 68.0221 36.0725H70.3378V36.0725ZM88.2093 58.1457C88.8919 55.6233 89.3545 52.4186 89.8171 49.4093L92.3302 49.1884L93.2554 54.0096C93.4754 55.159 94.158 56.0876 95.9886 56.0876C98.9643 56.0876 102.865 54.2531 106.543 47.8154C104.913 43.9002 100.11 31.2711 95.746 21.6061C94.6008 19.0639 94.3808 18.8402 92.7928 18.376L91.6251 17.9343V15.6129L98.5215 15.8564L106.983 15.3921V17.6937L104.913 18.158C103.305 18.3788 102.642 19.2847 102.642 20.2161C102.642 20.4596 102.642 20.6804 102.862 21.1447C103.302 22.5375 106.983 32.8678 109.739 39.7669C112.01 34.9457 116.373 24.1314 117.056 22.294C117.298 21.3655 117.518 21.1447 117.518 20.4596C117.518 19.2875 116.836 18.6024 115.248 18.1608L113.617 17.6937V15.3949L120.051 15.6157L126 15.3949V17.6937L124.855 18.5996C122.564 19.5282 122.322 19.749 121.416 21.6061L111.347 45.2703C105.376 58.8506 99.1843 60 94.8406 60C92.0877 60.0028 90.0173 59.2951 88.2093 58.1457Z" fill="#F1651F"/>
</svg>
