<?xml version="1.0" encoding="UTF-8"?>
<svg width="28px" height="28px" viewBox="0 0 28 28" version="1.1" xmlns="http://www.w3.org/2000/svg" xmlns:xlink="http://www.w3.org/1999/xlink">
    <!-- Generator: Sketch 48.2 (47327) - http://www.bohemiancoding.com/sketch -->
    <title>Combined Shape</title>
    <desc>Created with Sketch.</desc>
    <defs>
        <path d="M58,46.4751982 L58,49.5964191 C57.7103031,49.6939239 57.4035011,49.7426758 57.0795898,49.7426758 C56.5854467,49.7426758 56.1961277,49.611655 55.9116211,49.3496094 C55.6271145,49.0875638 55.4848633,48.7543966 55.4848633,48.3500977 L55.4960938,48.1591797 C55.5989522,47.0571247 56.4335795,46.4958028 58,46.4751982 Z M58,39.6301216 C57.8932703,39.6260562 57.7848719,39.6240234 57.6748047,39.6240234 C56.6865185,39.6240234 55.7955769,39.7943505 55.0019531,40.1350098 C54.2083294,40.475669 53.5944032,40.9454723 53.1601562,41.5444336 C52.7259093,42.1433949 52.5087891,42.7947556 52.5087891,43.4985352 L55.7543945,43.4985352 C55.7543945,43.0418271 55.9097478,42.6824557 56.220459,42.4204102 C56.5311702,42.1583646 56.9597954,42.0273438 57.5063477,42.0273438 C57.6846067,42.0273438 57.8491574,42.0412054 58,42.0689287 L58,44.5766602 L57.8095703,44.5766602 C56.0051993,44.5841472 54.6257372,44.9322882 53.6711426,45.6210938 C52.716548,46.3098993 52.2392578,47.2981706 52.2392578,48.5859375 C52.2392578,49.6341198 52.6304486,50.5026007 53.4128418,51.1914062 C54.195235,51.8802118 55.1816347,52.2246094 56.3720703,52.2246094 C56.96758,52.2246094 57.5102221,52.1264347 58,51.9300838 L58,58 L30,58 L30,30 L58,30 L58,39.6301216 Z M46.6914062,48.6308594 L47.8256836,52 L51.4082031,52 L45.2875977,35.6484375 L42.1655273,35.6484375 L36.0786133,52 L39.6611328,52 L40.7841797,48.6308594 L46.6914062,48.6308594 Z M41.6938477,45.9018555 L43.7265625,39.78125 L45.7817383,45.9018555 L41.6938477,45.9018555 Z" id="path-1"></path>
    </defs>
    <g id="Artboard" stroke="none" stroke-width="1" fill="none" fill-rule="evenodd" transform="translate(-30.000000, -30.000000)">
        <mask id="mask-2" fill="white">
            <use xlink:href="#path-1"></use>
        </mask>
        <use id="Combined-Shape" fill="#0000FF" xlink:href="#path-1"></use>
    </g>
</svg>